<?xml version="1.0" encoding="UTF-8" standalone="no"?>
<svg
   xmlns:dc="http://purl.org/dc/elements/1.1/"
   xmlns:cc="http://creativecommons.org/ns#"
   xmlns:rdf="http://www.w3.org/1999/02/22-rdf-syntax-ns#"
   xmlns:svg="http://www.w3.org/2000/svg"
   xmlns="http://www.w3.org/2000/svg"
   id="svg4927"
   preserveAspectRatio="xMidYMid meet"
   viewBox="0 0 35.625 35.625"
   height="24"
   width="24"
   version="1.0">
  <metadata
     id="metadata4937">
    <rdf:RDF>
      <cc:Work
         rdf:about="">
        <dc:format>image/svg+xml</dc:format>
        <dc:type
           rdf:resource="http://purl.org/dc/dcmitype/StillImage" />
        <dc:title></dc:title>
      </cc:Work>
    </rdf:RDF>
  </metadata>
  <defs
     id="defs4935" />
  <g
     style="opacity:0.3"
     id="g4158">
    <g
       style=""
       id="g4152">
      <path
         style="opacity:0.3;fill:#ffffff;fill-opacity:1;stroke:none"
         d="m 18.42922,3.3409021 c -0.780462,-0.023941 -0.938469,0.00479 -1.16351,0.2106768 -0.368685,0.3303796 -0.349532,1.0390197 0.03352,1.3406706 0.205889,0.1580076 0.363897,0.1915243 1.273637,0.2441935 2.690918,0.1580076 4.745016,0.8858002 6.732082,2.3796902 2.384478,1.7859647 3.878368,4.2757818 4.443365,7.3928398 0.143643,0.794827 0.215465,1.460374 0.263346,2.489817 0.02873,0.670335 0.05267,0.818767 0.138855,0.991139 0.272922,0.521904 1.072536,0.598513 1.436433,0.134067 0.191524,-0.239406 0.215465,-0.426142 0.181948,-1.264061 -0.09097,-2.4563 -0.622454,-4.687559 -1.556136,-6.564497 C 29.542421,9.3499789 28.910391,8.4833312 27.770821,7.3389732 26.554641,6.1275816 25.635324,5.4620344 24.198891,4.7581824 22.738518,4.0447542 21.407424,3.6473411 19.760314,3.4414524 19.434723,3.4031476 18.836209,3.3552665 18.42922,3.3409021 Z"
         id="path5478" />
      <path
         style="opacity:0.3;fill:#ffffff;fill-opacity:1;stroke:none"
         d="M 7.61767,3.8484417 C 7.1627996,3.9442039 6.5930146,4.2841596 5.3576825,5.2034765 4.6155256,5.7588972 3.5956584,6.7548239 3.356253,7.157025 2.8008323,8.1098587 2.8343491,8.9190491 3.5094724,10.781624 c 1.1587224,3.193668 2.853713,6.272422 5.0801837,9.24105 4.2614169,5.683485 9.6288869,9.820411 16.3513919,12.592727 0.857072,0.35432 1.134782,0.411777 1.805117,0.37826 0.813979,-0.03831 1.431645,-0.292074 2.303081,-0.952834 0.96241,-0.73258 2.341385,-2.446723 2.695705,-3.361252 0.335168,-0.866648 0.248982,-1.651898 -0.248981,-2.264776 -0.282499,-0.339955 -2.370114,-2.044522 -3.346889,-2.729222 -0.742157,-0.517115 -1.891303,-1.230544 -2.417995,-1.503466 -0.694275,-0.35432 -1.383763,-0.416565 -2.058887,-0.186736 -0.53148,0.181948 -0.486264,0.651281 -1.261938,1.628056 -0.402201,0.497963 -0.993261,0.636719 -1.041142,0.679812 -0.05267,0.04309 -0.220253,0.138856 -0.378261,0.210677 -0.627242,0.292075 -1.484313,0.114915 -2.887229,-0.584149 -1.091689,-0.541056 -2.058887,-1.225756 -3.155364,-2.231259 -0.933681,-0.852283 -1.876939,-1.963125 -2.403631,-2.829772 -0.679911,-1.11563 -1.197027,-2.566427 -1.201815,-3.366041 0,-0.344744 0.138855,-0.833131 0.311227,-1.082113 0.06703,-0.10055 0.226325,-0.612236 0.681195,-0.98092 1.134782,-0.914529 1.655402,-1.06839 1.808622,-1.614235 0.148431,-0.507539 -0.0096,-1.192239 -0.483599,-2.1163439 C 12.831921,8.0907063 10.299011,4.8491565 9.3892703,4.2458547 9.2408389,4.1500926 8.982281,4.0160255 8.8146972,3.9585682 8.4699534,3.8340774 7.9288971,3.7814082 7.61767,3.8484417 Z"
         id="path5480" />
      <path
         style="opacity:0.3;fill:#ffffff;fill-opacity:1;stroke:none"
         d="m 18.314305,7.1905418 c -0.229829,0.3495319 -0.2011,0.7708855 0.07182,1.0821126 0.17716,0.2058887 0.435718,0.3016509 0.904953,0.3399558 1.297577,0.1053384 2.719646,0.5314801 3.682056,1.1060531 1.120417,0.6655467 2.039734,1.6231687 2.671764,2.7818917 0.555421,1.015079 0.876224,2.322233 0.876224,3.562353 0,0.804402 0.110127,1.101265 0.478811,1.288001 0.220253,0.114915 0.617666,0.124491 0.804403,0.02873 0.172371,-0.09097 0.373472,-0.311227 0.435717,-0.474023 0.06703,-0.172372 0.06703,-1.211392 0.0048,-1.781177 -0.17716,-1.556135 -0.694276,-3.006932 -1.522619,-4.242264 C 25.247487,8.6892199 22.997076,7.3389732 20.090694,6.9128315 18.946336,6.7404595 18.563287,6.802705 18.314305,7.1905418 Z"
         id="path5482" />
      <path
         style="opacity:0.3;fill:#ffffff;fill-opacity:1;stroke:none"
         d="m 20.296583,10.427303 c -0.402202,-0.02394 -0.478811,-0.01436 -0.660759,0.07661 -0.483599,0.248982 -0.617667,0.924105 -0.268135,1.340671 0.191525,0.225041 0.368685,0.292074 0.957622,0.363896 1.254485,0.15322 1.996642,0.622454 2.417995,1.527407 0.196313,0.426141 0.311227,0.8858 0.373473,1.541771 0.05267,0.493175 0.124491,0.675123 0.35432,0.847495 0.316015,0.244194 0.837919,0.234618 1.120417,-0.02394 0.301651,-0.277711 0.35432,-0.612878 0.225041,-1.465162 -0.191524,-1.307153 -0.627242,-2.216894 -1.422068,-2.968627 -0.617666,-0.579361 -1.34067,-0.93847 -2.283928,-1.13957 -0.196312,-0.04309 -0.564997,-0.08619 -0.813978,-0.100551 z"
         id="path5484" />
    </g>
    <g
       id="g5470"
       style="fill:#dfdbd2;fill-opacity:1"
       transform="matrix(0.04788109,0,0,0.04788109,-3.747206,-5.6245327)">
      <g
         style=""
         id="g4142">
        <path
           style="fill:#3c3c3c;fill-opacity:1;stroke:none"
           d="m 478,172.4 c -16.3,-0.5 -19.6,0.1 -24.3,4.4 -7.7,6.9 -7.3,21.7 0.7,28 4.3,3.3 7.6,4 26.6,5.1 56.2,3.3 99.1,18.5 140.6,49.7 49.8,37.3 81,89.3 92.8,154.4 3,16.6 4.5,30.5 5.5,52 0.6,14 1.1,17.1 2.9,20.7 5.7,10.9 22.4,12.5 30,2.8 4,-5 4.5,-8.9 3.8,-26.4 -1.9,-51.3 -13,-97.9 -32.5,-137.1 -14,-28.1 -27.2,-46.2 -51,-70.1 C 647.7,230.6 628.5,216.7 598.5,202 568,187.1 540.2,178.8 505.8,174.5 499,173.7 486.5,172.7 478,172.4 z"
           id="path5466" />
        <path
           style="fill:#3c3c3c;fill-opacity:1;stroke:none"
           d="m 252.2,183 c -9.5,2 -21.4,9.1 -47.2,28.3 -15.5,11.6 -36.8,32.4 -41.8,40.8 -11.6,19.9 -10.9,36.8 3.2,75.7 24.2,66.7 59.6,131 106.1,193 89,118.7 201.1,205.1 341.5,263 17.9,7.4 23.7,8.6 37.7,7.9 17,-0.8 29.9,-6.1 48.1,-19.9 20.1,-15.3 48.9,-51.1 56.3,-70.2 7,-18.1 5.2,-34.5 -5.2,-47.3 -5.9,-7.1 -49.5,-42.7 -69.9,-57 -15.5,-10.8 -39.5,-25.7 -50.5,-31.4 -14.5,-7.4 -28.9,-8.7 -43,-3.9 -11.1,3.8 -14.8,7.1 -31,27.5 -8.4,10.4 -16.1,19.8 -17.1,20.7 -1.1,0.9 -4.6,2.9 -7.9,4.4 -13.1,6.1 -31,2.4 -60.3,-12.2 -22.8,-11.3 -43,-25.6 -65.9,-46.6 -19.5,-17.8 -39.2,-41 -50.2,-59.1 -14.2,-23.3 -25,-53.6 -25.1,-70.3 0,-7.2 2.9,-17.4 6.5,-22.6 1.4,-2.1 10.3,-10 19.8,-17.7 23.7,-19.1 29,-25.1 32.2,-36.5 3.1,-10.6 -0.2,-24.9 -10.1,-44.2 -17.3,-33.8 -70.2,-101.5 -89.2,-114.1 -3.1,-2 -8.5,-4.8 -12,-6 -7.2,-2.6 -18.5,-3.7 -25,-2.3 z"
           id="path5464" />
        <path
           style="fill:#3c3c3c;fill-opacity:1;stroke:none"
           d="m 475.6,252.8 c -4.8,7.3 -4.2,16.1 1.5,22.6 3.7,4.3 9.1,6.3 18.9,7.1 27.1,2.2 56.8,11.1 76.9,23.1 23.4,13.9 42.6,33.9 55.8,58.1 11.6,21.2 18.3,48.5 18.3,74.4 0,16.8 2.3,23 10,26.9 4.6,2.4 12.9,2.6 16.8,0.6 3.6,-1.9 7.8,-6.5 9.1,-9.9 1.4,-3.6 1.4,-25.3 0.1,-37.2 -3.7,-32.5 -14.5,-62.8 -31.8,-88.6 -30.8,-45.8 -77.8,-74 -138.5,-82.9 -23.9,-3.6 -31.9,-2.3 -37.1,5.8 z"
           id="path5462" />
        <path
           style="fill:#3c3c3c;fill-opacity:1;stroke:none"
           d="m 517,320.4 c -8.4,-0.5 -10,-0.3 -13.8,1.6 -10.1,5.2 -12.9,19.3 -5.6,28 4,4.7 7.7,6.1 20,7.6 26.2,3.2 41.7,13 50.5,31.9 4.1,8.9 6.5,18.5 7.8,32.2 1.1,10.3 2.6,14.1 7.4,17.7 6.6,5.1 17.5,4.9 23.4,-0.5 6.3,-5.8 7.4,-12.8 4.7,-30.6 -4,-27.3 -13.1,-46.3 -29.7,-62 -12.9,-12.1 -28,-19.6 -47.7,-23.8 -4.1,-0.9 -11.8,-1.8 -17,-2.1 z"
           id="path4931" />
      </g>
    </g>
  </g>
</svg>
