<?xml version="1.0" encoding="UTF-8" standalone="no"?>
<svg
   xmlns:dc="http://purl.org/dc/elements/1.1/"
   xmlns:cc="http://creativecommons.org/ns#"
   xmlns:rdf="http://www.w3.org/1999/02/22-rdf-syntax-ns#"
   xmlns:svg="http://www.w3.org/2000/svg"
   xmlns="http://www.w3.org/2000/svg"
   id="svg4927"
   preserveAspectRatio="xMidYMid meet"
   viewBox="0 0 35.625 35.625"
   height="24"
   width="24"
   version="1.0">
  <metadata
     id="metadata4937">
    <rdf:RDF>
      <cc:Work
         rdf:about="">
        <dc:format>image/svg+xml</dc:format>
        <dc:type
           rdf:resource="http://purl.org/dc/dcmitype/StillImage" />
        <dc:title></dc:title>
      </cc:Work>
    </rdf:RDF>
  </metadata>
  <defs
     id="defs4935" />
  <g
     style="opacity:0.4"
     id="g4142">
    <g
       style=""
       id="g5500"
       transform="matrix(0.04788109,0,0,0.04788109,-3.747206,-5.6245327)">
      <path
         style="opacity:0.3;fill:#000000;fill-opacity:1;stroke:none"
         d="m 463.15625,187.24375 c -16.3,-0.5 -19.6,0.1 -24.3,4.4 -7.7,6.9 -7.3,21.7 0.7,28 4.3,3.3 7.6,4 26.6,5.1 56.2,3.3 99.1,18.5 140.6,49.7 49.8,37.3 81,89.3 92.8,154.4 3,16.6 4.5,30.5 5.5,52 0.6,14 1.1,17.1 2.9,20.7 5.7,10.9 22.4,12.5 30,2.8 4,-5 4.5,-8.9 3.8,-26.4 -1.9,-51.3 -13,-97.9 -32.5,-137.1 -14,-28.1 -27.2,-46.2 -51,-70.1 -25.4,-25.3 -44.6,-39.2 -74.6,-53.9 -30.5,-14.9 -58.3,-23.2 -92.7,-27.5 -6.8,-0.8 -19.3,-1.8 -27.8,-2.1 z"
         id="path5478" />
      <path
         style="opacity:0.3;fill:#000000;fill-opacity:1;stroke:none"
         d="m 237.35625,197.84375 c -9.5,2 -21.4,9.1 -47.2,28.3 -15.5,11.6 -36.8,32.4 -41.8,40.8 -11.6,19.9 -10.9,36.8 3.2,75.7 24.2,66.7 59.6,131 106.1,193 89,118.7 201.1,205.1 341.5,263 17.9,7.4 23.7,8.6 37.7,7.9 17,-0.8 29.9,-6.1 48.1,-19.9 20.1,-15.3 48.9,-51.1 56.3,-70.2 7,-18.1 5.2,-34.5 -5.2,-47.3 -5.9,-7.1 -49.5,-42.7 -69.9,-57 -15.5,-10.8 -39.5,-25.7 -50.5,-31.4 -14.5,-7.4 -28.9,-8.7 -43,-3.9 -11.1,3.8 -10.15567,13.60206 -26.35567,34.00206 -8.4,10.4 -20.74433,13.29794 -21.74433,14.19794 -1.1,0.9 -4.6,2.9 -7.9,4.4 -13.1,6.1 -31,2.4 -60.3,-12.2 -22.8,-11.3 -43,-25.6 -65.9,-46.6 -19.5,-17.8 -39.2,-41 -50.2,-59.1 -14.2,-23.3 -25,-53.6 -25.1,-70.3 0,-7.2 2.9,-17.4 6.5,-22.6 1.4,-2.1 4.72681,-12.7866 14.22681,-20.4866 23.7,-19.1 34.57319,-22.3134 37.77319,-33.7134 3.1,-10.6 -0.2,-24.9 -10.1,-44.2 -17.3,-33.8 -70.2,-101.5 -89.2,-114.1 -3.1,-2 -8.5,-4.8 -12,-6 -7.2,-2.6 -18.5,-3.7 -25,-2.3 z"
         id="path5480" />
      <path
         style="opacity:0.3;fill:#000000;fill-opacity:1;stroke:none"
         d="m 460.75625,267.64375 c -4.8,7.3 -4.2,16.1 1.5,22.6 3.7,4.3 9.1,6.3 18.9,7.1 27.1,2.2 56.8,11.1 76.9,23.1 23.4,13.9 42.6,33.9 55.8,58.1 11.6,21.2 18.3,48.5 18.3,74.4 0,16.8 2.3,23 10,26.9 4.6,2.4 12.9,2.6 16.8,0.6 3.6,-1.9 7.8,-6.5 9.1,-9.9 1.4,-3.6 1.4,-25.3 0.1,-37.2 -3.7,-32.5 -14.5,-62.8 -31.8,-88.6 -30.8,-45.8 -77.8,-74 -138.5,-82.9 -23.9,-3.6 -31.9,-2.3 -37.1,5.8 z"
         id="path5482" />
      <path
         style="opacity:0.3;fill:#000000;fill-opacity:1;stroke:none"
         d="m 502.15625,335.24375 c -8.4,-0.5 -10,-0.3 -13.8,1.6 -10.1,5.2 -12.9,19.3 -5.6,28 4,4.7 7.7,6.1 20,7.6 26.2,3.2 41.7,13 50.5,31.9 4.1,8.9 6.5,18.5 7.8,32.2 1.1,10.3 2.6,14.1 7.4,17.7 6.6,5.1 17.5,4.9 23.4,-0.5 6.3,-5.8 7.4,-12.8 4.7,-30.6 -4,-27.3 -13.1,-46.3 -29.7,-62 -12.9,-12.1 -28,-19.6 -47.7,-23.8 -4.1,-0.9 -11.8,-1.8 -17,-2.1 z"
         id="path5484" />
    </g>
    <g
       id="g5470"
       style="fill:#dfdbd2;fill-opacity:1"
       transform="matrix(0.04788109,0,0,0.04788109,-3.747206,-5.6245327)">
      <path
         id="path5466"
         d="m 478,172.4 c -16.3,-0.5 -19.6,0.1 -24.3,4.4 -7.7,6.9 -7.3,21.7 0.7,28 4.3,3.3 7.6,4 26.6,5.1 56.2,3.3 99.1,18.5 140.6,49.7 49.8,37.3 81,89.3 92.8,154.4 3,16.6 4.5,30.5 5.5,52 0.6,14 1.1,17.1 2.9,20.7 5.7,10.9 22.4,12.5 30,2.8 4,-5 4.5,-8.9 3.8,-26.4 -1.9,-51.3 -13,-97.9 -32.5,-137.1 -14,-28.1 -27.2,-46.2 -51,-70.1 C 647.7,230.6 628.5,216.7 598.5,202 568,187.1 540.2,178.8 505.8,174.5 499,173.7 486.5,172.7 478,172.4 z"
         style="fill:#dfdbd2;fill-opacity:1;stroke:none" />
      <path
         id="path5464"
         d="m 252.2,183 c -9.5,2 -21.4,9.1 -47.2,28.3 -15.5,11.6 -36.8,32.4 -41.8,40.8 -11.6,19.9 -10.9,36.8 3.2,75.7 24.2,66.7 59.6,131 106.1,193 89,118.7 201.1,205.1 341.5,263 17.9,7.4 23.7,8.6 37.7,7.9 17,-0.8 29.9,-6.1 48.1,-19.9 20.1,-15.3 48.9,-51.1 56.3,-70.2 7,-18.1 5.2,-34.5 -5.2,-47.3 -5.9,-7.1 -49.5,-42.7 -69.9,-57 -15.5,-10.8 -39.5,-25.7 -50.5,-31.4 -14.5,-7.4 -28.9,-8.7 -43,-3.9 -11.1,3.8 -14.8,7.1 -31,27.5 -8.4,10.4 -16.1,19.8 -17.1,20.7 -1.1,0.9 -4.6,2.9 -7.9,4.4 -13.1,6.1 -31,2.4 -60.3,-12.2 -22.8,-11.3 -43,-25.6 -65.9,-46.6 -19.5,-17.8 -39.2,-41 -50.2,-59.1 -14.2,-23.3 -25,-53.6 -25.1,-70.3 0,-7.2 2.9,-17.4 6.5,-22.6 1.4,-2.1 10.3,-10 19.8,-17.7 23.7,-19.1 29,-25.1 32.2,-36.5 3.1,-10.6 -0.2,-24.9 -10.1,-44.2 -17.3,-33.8 -70.2,-101.5 -89.2,-114.1 -3.1,-2 -8.5,-4.8 -12,-6 -7.2,-2.6 -18.5,-3.7 -25,-2.3 z"
         style="fill:#dfdbd2;fill-opacity:1;stroke:none" />
      <path
         id="path5462"
         d="m 475.6,252.8 c -4.8,7.3 -4.2,16.1 1.5,22.6 3.7,4.3 9.1,6.3 18.9,7.1 27.1,2.2 56.8,11.1 76.9,23.1 23.4,13.9 42.6,33.9 55.8,58.1 11.6,21.2 18.3,48.5 18.3,74.4 0,16.8 2.3,23 10,26.9 4.6,2.4 12.9,2.6 16.8,0.6 3.6,-1.9 7.8,-6.5 9.1,-9.9 1.4,-3.6 1.4,-25.3 0.1,-37.2 -3.7,-32.5 -14.5,-62.8 -31.8,-88.6 -30.8,-45.8 -77.8,-74 -138.5,-82.9 -23.9,-3.6 -31.9,-2.3 -37.1,5.8 z"
         style="fill:#dfdbd2;fill-opacity:1;stroke:none" />
      <path
         id="path4931"
         d="m 517,320.4 c -8.4,-0.5 -10,-0.3 -13.8,1.6 -10.1,5.2 -12.9,19.3 -5.6,28 4,4.7 7.7,6.1 20,7.6 26.2,3.2 41.7,13 50.5,31.9 4.1,8.9 6.5,18.5 7.8,32.2 1.1,10.3 2.6,14.1 7.4,17.7 6.6,5.1 17.5,4.9 23.4,-0.5 6.3,-5.8 7.4,-12.8 4.7,-30.6 -4,-27.3 -13.1,-46.3 -29.7,-62 -12.9,-12.1 -28,-19.6 -47.7,-23.8 -4.1,-0.9 -11.8,-1.8 -17,-2.1 z"
         style="fill:#dfdbd2;fill-opacity:1;stroke:none" />
    </g>
  </g>
</svg>
